Coordinates
version=1
nRows=20
nColumns=30
inDegrees=yes

Units are S.I. units (second, meters, Newtons, ...)
Angles are in degrees.

endheader
time	floatyaw	floatroll	floatpitch	floatx	floaty	floatz	pro_sup_l	deviation_l	flexion_l	cmc_flexion_l	cmc_abduction_l	mp_flexion_l	ip_flexion_l	2mcp_flexion_l	2mcp_abduction_l	2pm_flexion_l	2md_flexion_l	3mcp_flexion_l	3mcp_abduction_l	3pm_flexion_l	3md_flexion_l	4mcp_flexion_l	4mcp_abduction_l	4pm_flexion_l	4md_flexion_l	5mcp_flexion_l	5mcp_abduction_l	5pm_flexion_l	5md_flexion_l
-0.995000	-160.147433	-5.066637	-73.570646	0.080139	-0.182555	-0.014476	100.539365	3.908259	-0.807412	14.725007	6.410390	-25.958472	-41.969745	31.712652	6.589797	42.366912	28.845107	24.780294	4.119531	44.600564	29.396488	13.342979	-4.306715	52.677810	36.541072	1.168894	-7.688600	62.815654	42.979673
-0.985000	-160.147433	-5.066637	-73.570646	0.080136	-0.182561	-0.014468	100.524195	3.912484	-0.812025	14.700034	6.381369	-25.955867	-41.960495	31.724547	6.590700	42.377368	28.845470	24.789540	4.118974	44.602338	29.394282	13.341495	-4.306424	52.680940	36.546616	1.167605	-7.697849	62.831407	42.987212
-0.975000	-160.147433	-5.066637	-73.570646	0.080136	-0.182562	-0.014462	100.509686	3.915768	-0.812067	14.675591	6.355340	-25.952512	-41.951355	31.732377	6.592243	42.381716	28.841915	24.797923	4.117431	44.596851	29.389015	13.336994	-4.307461	52.683258	36.551637	1.159206	-7.703833	62.842928	42.994116
-0.965000	-160.147433	-5.066637	-73.570646	0.080138	-0.182558	-0.014458	100.498276	3.918510	-0.806185	14.653186	6.334913	-25.948838	-41.939694	31.734037	6.595495	42.382667	28.837287	24.802958	4.116295	44.587066	29.383405	13.330993	-4.309532	52.685013	36.554379	1.145935	-7.705206	62.849587	42.998966
-0.955000	-160.147433	-5.066637	-73.570646	0.080141	-0.182547	-0.014455	100.491115	3.920754	-0.795707	14.634407	6.319261	-25.946987	-41.926783	31.730369	6.601022	42.382646	28.833751	24.803856	4.116647	44.577567	29.380232	13.325910	-4.312127	52.686764	36.554001	1.130864	-7.702471	62.854025	43.001474
-0.945000	-160.147433	-5.066637	-73.570646	0.080144	-0.182536	-0.014452	100.486965	3.921977	-0.783828	14.619891	6.306281	-25.949683	-41.916884	31.725023	6.608498	42.382543	28.832136	24.801722	4.118677	44.573170	29.381631	13.323619	-4.314745	52.689619	36.551402	1.116637	-7.697708	62.860996	43.002890
-0.935000	-160.147433	-5.066637	-73.570646	0.080143	-0.182526	-0.014451	100.482235	3.921228	-0.774034	14.608640	6.295544	-25.958574	-41.914311	31.722905	6.616663	42.382301	28.832513	24.798771	4.121541	44.577828	29.388890	13.324383	-4.317079	52.695355	36.549172	1.104858	-7.693431	62.874781	43.005409
-0.925000	-160.147433	-5.066637	-73.570646	0.080137	-0.182522	-0.014449	100.472316	3.917506	-0.768610	14.598220	6.289994	-25.973100	-41.920556	31.728027	6.623767	42.382448	28.835191	24.797164	4.123746	44.593941	29.402478	13.326925	-4.319029	52.705858	36.550474	1.096237	-7.691320	62.896763	43.010947
-0.915000	-160.147433	-5.066637	-73.570646	0.080127	-0.182524	-0.014446	100.453725	3.910258	-0.767809	14.585837	6.294901	-25.990494	-41.933333	31.741761	6.628400	42.384680	28.840912	24.798091	4.123911	44.621722	29.421895	13.329530	-4.320577	52.721765	36.557308	1.090997	-7.691524	62.924516	43.020009
-0.905000	-160.147433	-5.066637	-73.570646	0.080115	-0.182529	-0.014442	100.426124	3.899936	-0.769857	14.569654	6.314476	-26.006740	-41.947809	31.762284	6.630266	42.390543	28.849860	24.801417	4.121475	44.658479	29.445262	13.331308	-4.321624	52.741004	36.569061	1.089097	-7.692807	62.952571	43.031180
-0.895000	-160.147433	-5.066637	-73.570646	0.080104	-0.182535	-0.014436	100.393111	3.888337	-0.771698	14.549497	6.348421	-26.017857	-41.958918	31.785539	6.630342	42.399182	28.860276	24.805919	4.117010	44.698381	29.469065	13.332765	-4.321940	52.758350	36.582226	1.090263	-7.693383	62.974182	43.041360
-0.885000	-160.147433	-5.066637	-73.570646	0.080097	-0.182536	-0.014429	100.361012	3.878299	-0.770229	14.526536	6.390964	-26.021066	-41.963331	31.807318	6.630250	42.406378	28.868141	24.809948	4.111952	44.733649	29.488750	13.335521	-4.321259	52.766777	36.591607	1.094061	-7.691944	62.983340	43.046705
-0.875000	-160.147433	-5.066637	-73.570646	0.080095	-0.182530	-0.014420	100.335966	3.872594	-0.763620	14.502358	6.433196	-26.015653	-41.960236	31.825283	6.631233	42.406493	28.868870	24.812187	4.107935	44.757363	29.500376	13.341490	-4.319486	52.760436	36.592574	1.100011	-7.688324	62.976667	43.044078
-0.865000	-160.147433	-5.066637	-73.570646	0.080099	-0.182517	-0.014409	100.320834	3.872566	-0.752166	14.478272	6.467311	-26.003368	-41.950928	31.839705	6.633391	42.396511	28.860321	24.812126	4.106106	44.766582	29.502591	13.351907	-4.316930	52.737965	36.583382	1.107602	-7.683440	62.954742	43.032546
-0.855000	-160.147433	-5.066637	-73.570646	0.080107	-0.182500	-0.014398	100.313820	3.877419	-0.738184	14.455228	6.490045	-25.988077	-41.937777	31.852585	6.635674	42.379082	28.844907	24.810102	4.106781	44.763597	29.497484	13.366421	-4.314394	52.704294	36.566403	1.116146	-7.678653	62.922246	43.014143
-0.845000	-160.147433	-5.066637	-73.570646	0.080115	-0.182483	-0.014386	100.309575	3.884621	-0.724892	14.433996	6.503234	-25.974596	-41.923220	31.866004	6.636620	42.361655	28.828814	24.807048	4.109564	44.754103	29.489392	13.382589	-4.312980	52.669581	36.547524	1.124567	-7.675023	62.886601	42.993390
-0.835000	-160.147433	-5.066637	-73.570646	0.080122	-0.182472	-0.014375	100.301943	3.891070	-0.714843	14.415050	6.511506	-25.967019	-41.909090	31.880837	6.635308	42.351914	28.818539	24.804151	4.113744	44.743357	29.482321	13.396195	-4.313610	52.645272	36.533789	1.131255	-7.672951	62.855517	42.975714
-0.825000	-160.147433	-5.066637	-73.570646	0.080125	-0.182466	-0.014363	100.286722	3.894278	-0.708805	14.398192	6.519051	-25.967238	-41.896339	31.896464	6.631899	42.353026	28.817286	24.802509	4.118638	44.733164	29.477832	13.402689	-4.316511	52.639029	36.530289	1.134228	-7.672288	62.834549	42.965509
-0.815000	-160.147433	-5.066637	-73.570646	0.080125	-0.182466	-0.014354	100.263184	3.893054	-0.705742	14.382443	6.527621	-25.974380	-41.885105	31.911329	6.627472	42.362447	28.823822	24.802848	4.123711	44.721877	29.474916	13.399310	-4.320932	52.651175	36.537862	1.131853	-7.672695	62.825758	42.964702
-0.805000	-160.147433	-5.066637	-73.570646	0.080122	-0.182469	-0.014347	100.233922	3.887573	-0.703858	14.366544	6.536497	-25.985512	-41.875156	31.923922	6.623398	42.374889	28.834276	24.805460	4.128515	44.707170	29.471707	13.386837	-4.325325	52.674753	36.552848	1.123981	-7.673950	62.827936	42.972356
